<svg width="24" height="24" viewBox="0 0 24 24" fill="none" xmlns="http://www.w3.org/2000/svg">
<path d="M16.1101 21C16.1146 21 16.1308 21 16.1353 21C16.6105 21 17.0596 20.8128 17.3999 20.4726L19.8408 18.0317C20.1927 17.6797 20.1927 17.1109 19.8408 16.759L16.2406 13.1588C15.8887 12.8069 15.3199 12.8069 14.968 13.1588L13.5333 14.5935C12.8682 14.3955 11.627 13.9454 10.8404 13.1588C10.0538 12.3722 9.60375 11.131 9.40575 10.4659L10.8404 9.0312C11.1923 8.67928 11.1923 8.11046 10.8404 7.75854L7.24026 4.15836C6.90275 3.82084 6.30512 3.82084 5.96761 4.15836L3.52762 6.59928C3.1856 6.9413 2.99299 7.41112 3.00019 7.89084C3.0209 9.17251 3.36021 13.6241 6.86855 17.1325C10.3769 20.6409 14.8285 20.9793 16.1101 21ZM6.60484 6.06735L8.93233 8.39487L7.76858 9.55863C7.55347 9.77284 7.46167 10.0825 7.52467 10.3795C7.54627 10.483 8.07459 12.9374 9.56865 14.4315C11.0627 15.9255 13.5171 16.4539 13.6206 16.4755C13.9203 16.5385 14.2272 16.4467 14.4414 16.2316L15.6052 15.0678L17.9327 17.3953L16.1272 19.1999C15.004 19.181 11.1608 18.8795 8.1412 15.8589C5.11168 12.8294 4.81827 8.9727 4.80027 7.87194L6.60484 6.06735ZM19.1999 11.0995H21C21 6.48227 17.5142 3 12.8907 3V4.80009C16.5466 4.80009 19.1999 7.44892 19.1999 11.0995Z" fill="#FE9015"/>
<path d="M13 8.6C14.6824 8.6 15.4 9.3176 15.4 11H17C17 8.42 15.58 7 13 7V8.6Z" fill="#FE9015"/>
</svg>
