<svg width="24" height="24" viewBox="0 0 24 24" fill="none" xmlns="http://www.w3.org/2000/svg">
<path d="M21 9H19.58L15.868 2.504L14.132 3.496L17.277 9H6.72298L9.86898 3.496L8.13198 2.504L4.41998 9H2.99998C2.68798 9 2.39498 9.146 2.20498 9.393C2.01598 9.641 1.95298 9.963 2.03498 10.263L4.83398 20.527C5.07098 21.395 5.86498 22 6.76398 22H17.237C18.135 22 18.929 21.395 19.167 20.525L21.966 10.262C22.048 9.962 21.986 9.64 21.796 9.392C21.605 9.146 21.312 9 21 9ZM17.236 20V21V20H6.76398L4.30998 11H19.69L17.236 20Z" fill="#FE9015"/>
<path d="M9 13H11V18H9V13ZM13 13H15V18H13V13Z" fill="#FE9015"/>
</svg>
