<svg width="20" height="20" viewBox="0 0 20 20" fill="none" xmlns="http://www.w3.org/2000/svg">
<g clip-path="url(#clip0_82_186)">
<path d="M10 2.5C7.06401 2.5 4.68939 4.78007 4.68939 7.59919C4.68939 11.4236 10 17.0691 10 17.0691C10 17.0691 15.3107 11.4236 15.3107 7.59919C15.3107 4.78007 12.9361 2.5 10 2.5ZM6.20672 7.59919C6.20672 5.58865 7.90613 3.95691 10 3.95691C12.0939 3.95691 13.7934 5.58865 13.7934 7.59919C13.7934 9.69714 11.6084 12.8368 10 14.7963C8.42202 12.8514 6.20672 9.67529 6.20672 7.59919Z" fill="#FE9015"/>
<path d="M9.99993 9.45744C10.9407 9.45744 11.7033 8.69482 11.7033 7.75408C11.7033 6.81334 10.9407 6.05072 9.99993 6.05072C9.05919 6.05072 8.29657 6.81334 8.29657 7.75408C8.29657 8.69482 9.05919 9.45744 9.99993 9.45744Z" fill="#FE9015"/>
</g>
<defs>
<clipPath id="clip0_82_186">
<rect width="20" height="20" fill="white"/>
</clipPath>
</defs>
</svg>
