<svg width="18" height="18" viewBox="0 0 18 18" fill="none" xmlns="http://www.w3.org/2000/svg">
<path fill-rule="evenodd" clip-rule="evenodd" d="M2.97803 5.96324C2.97803 2.66983 5.64786 0 8.94126 0C12.2347 0 14.9045 2.66983 14.9045 5.96324C14.9045 9.25664 12.2347 11.9265 8.94126 11.9265C5.64786 11.9265 2.97803 9.25664 2.97803 5.96324ZM8.94126 2C6.75243 2 4.97803 3.7744 4.97803 5.96324C4.97803 8.15207 6.75243 9.92647 8.94126 9.92647C11.1301 9.92647 12.9045 8.15207 12.9045 5.96324C12.9045 3.7744 11.1301 2 8.94126 2Z" fill="#FE9015"/>
<path fill-rule="evenodd" clip-rule="evenodd" d="M8.05882 12C4.69772 12 2 14.678 2 17.9485H0C0 13.5439 3.62296 10 8.05882 10H9.82353C14.2594 10 17.8824 13.5439 17.8824 17.9485H15.8824C15.8824 14.678 13.1846 12 9.82353 12H8.05882Z" fill="#FE9015"/>
</svg>
